<svg width="420" height="420" viewBox="0 0 420 420" xmlns="http://www.w3.org/2000/svg">
  <rect width="420" height="420" fill="#ffffff"/>
  <circle cx="210.0" cy="210.0" r="30.0" fill="none" stroke="#d0d7de" stroke-width="1"/>
<circle cx="210.0" cy="210.0" r="60.0" fill="none" stroke="#d0d7de" stroke-width="1"/>
<circle cx="210.0" cy="210.0" r="90.0" fill="none" stroke="#d0d7de" stroke-width="1"/>
<circle cx="210.0" cy="210.0" r="120.0" fill="none" stroke="#d0d7de" stroke-width="1"/>
<circle cx="210.0" cy="210.0" r="150.0" fill="none" stroke="#d0d7de" stroke-width="1"/>

  <line x1="210.0" y1="210.0" x2="210.0" y2="60.0" stroke="#d0d7de" stroke-width="1"/>
<line x1="210.0" y1="210.0" x2="339.9" y2="135.0" stroke="#d0d7de" stroke-width="1"/>
<line x1="210.0" y1="210.0" x2="339.9" y2="285.0" stroke="#d0d7de" stroke-width="1"/>
<line x1="210.0" y1="210.0" x2="210.0" y2="360.0" stroke="#d0d7de" stroke-width="1"/>
<line x1="210.0" y1="210.0" x2="80.1" y2="285.0" stroke="#d0d7de" stroke-width="1"/>
<line x1="210.0" y1="210.0" x2="80.1" y2="135.0" stroke="#d0d7de" stroke-width="1"/>

  <polygon points="210.0,75.0 326.9,142.5 313.9,270.0 210.0,315.0 119.1,262.5 132.1,165.0" fill="#B85040" fill-opacity="0">
    <animate attributeName="fill-opacity" from="0" to="0.25" dur="1s" begin="0.4s" fill="freeze"/>
  </polygon>
  <polyline points="210.0,75.0 326.9,142.5 313.9,270.0 210.0,315.0 119.1,262.5 132.1,165.0 210.0,75.0" fill="none" stroke="#B85040" stroke-width="2.5"
            stroke-linejoin="round" stroke-dasharray="698.8" stroke-dashoffset="698.8">
    <animate attributeName="stroke-dashoffset" from="698.8" to="0" dur="1.1s" begin="0s"
             fill="freeze" calcMode="spline" keySplines="0.4 0 0.2 1" keyTimes="0;1" values="698.8;0"/>
  </polyline>
  <circle cx="210.0" cy="75.0" r="3.5" fill="#B85040" opacity="0"><animate attributeName="opacity" from="0" to="1" dur="0.3s" begin="1.10s" fill="freeze"/></circle><circle cx="326.9" cy="142.5" r="3.5" fill="#B85040" opacity="0"><animate attributeName="opacity" from="0" to="1" dur="0.3s" begin="1.15s" fill="freeze"/></circle><circle cx="313.9" cy="270.0" r="3.5" fill="#B85040" opacity="0"><animate attributeName="opacity" from="0" to="1" dur="0.3s" begin="1.20s" fill="freeze"/></circle><circle cx="210.0" cy="315.0" r="3.5" fill="#B85040" opacity="0"><animate attributeName="opacity" from="0" to="1" dur="0.3s" begin="1.25s" fill="freeze"/></circle><circle cx="119.1" cy="262.5" r="3.5" fill="#B85040" opacity="0"><animate attributeName="opacity" from="0" to="1" dur="0.3s" begin="1.30s" fill="freeze"/></circle><circle cx="132.1" cy="165.0" r="3.5" fill="#B85040" opacity="0"><animate attributeName="opacity" from="0" to="1" dur="0.3s" begin="1.35s" fill="freeze"/></circle>
  <text x="210.0" y="32.0" fill="#24292f" font-size="12" font-family="Segoe UI, Helvetica, Arial, sans-serif" text-anchor="middle" dominant-baseline="middle">PHP &amp; Laravel (9)</text>
<text x="364.2" y="121.0" fill="#24292f" font-size="12" font-family="Segoe UI, Helvetica, Arial, sans-serif" text-anchor="start" dominant-baseline="middle">Automatización (n8n) (9)</text>
<text x="364.2" y="299.0" fill="#24292f" font-size="12" font-family="Segoe UI, Helvetica, Arial, sans-serif" text-anchor="start" dominant-baseline="middle">DevOps &amp; VPS (8)</text>
<text x="210.0" y="388.0" fill="#24292f" font-size="12" font-family="Segoe UI, Helvetica, Arial, sans-serif" text-anchor="middle" dominant-baseline="middle">Bases de Datos (7)</text>
<text x="55.8" y="299.0" fill="#24292f" font-size="12" font-family="Segoe UI, Helvetica, Arial, sans-serif" text-anchor="end" dominant-baseline="middle">JavaScript / Frontend (7)</text>
<text x="55.8" y="121.0" fill="#24292f" font-size="12" font-family="Segoe UI, Helvetica, Arial, sans-serif" text-anchor="end" dominant-baseline="middle">IA / LLM (6)</text>

</svg>